<?xml version="1.0" encoding="UTF-8"?>
<svg id="Layer_2" data-name="Layer 2" xmlns="http://www.w3.org/2000/svg" xmlns:xlink="http://www.w3.org/1999/xlink" viewBox="0 0 590.35 181.72">
  <defs>
    <style>
      .cls-1 {
        fill: #0081c8;
      }

      .cls-2 {
        fill: #231f20;
      }

      .cls-3 {
        fill: #fcb131;
      }

      .cls-4 {
        fill: url(#radial-gradient);
      }

      .cls-5 {
        fill: #00a651;
      }

      .cls-6 {
        fill: url(#radial-gradient-2);
      }

      .cls-7 {
        fill: #ee334e;
      }

      .cls-8 {
        fill: url(#linear-gradient);
      }
    </style>
    <linearGradient id="linear-gradient" x1="-205.77" y1="226.23" x2="-84.43" y2="150.09" gradientTransform="translate(256.43 -112.35) rotate(5.24) skewX(.04)" gradientUnits="userSpaceOnUse">
      <stop offset=".1" stop-color="#00bbf2"/>
      <stop offset=".4" stop-color="#0074be"/>
      <stop offset="1" stop-color="#004c98"/>
    </linearGradient>
    <radialGradient id="radial-gradient" cx="-46.04" cy="107.03" fx="-46.04" fy="107.03" r="80.43" gradientTransform="translate(127.64 -48.34) rotate(5.86) scale(.89 .9) skewX(1.32)" gradientUnits="userSpaceOnUse">
      <stop offset="0" stop-color="#f26522"/>
      <stop offset=".51" stop-color="#ed1c24"/>
      <stop offset="1" stop-color="#b8292f"/>
    </radialGradient>
    <radialGradient id="radial-gradient-2" cx="-33.67" cy="96.57" fx="-33.67" fy="96.57" r="51.3" gradientTransform="translate(127.64 -48.34) rotate(5.86) scale(.89 .9) skewX(1.32)" gradientUnits="userSpaceOnUse">
      <stop offset="0" stop-color="#00bbf2"/>
      <stop offset=".5" stop-color="#0074be"/>
      <stop offset="1" stop-color="#004c98"/>
    </radialGradient>
  </defs>
  <g id="Layer_1-2" data-name="Layer 1">
    <g>
      <g>
        <path class="cls-2" d="M309.39,104.3c-.69-.65-1.03-1.46-1.03-2.49v-13.39h-12.39v14.7c0,2.74.84,5.14,2.48,7.2,1.66,2.07,3.75,3.1,6.34,3.1h45.16v-8.2h-37.9c-1.11,0-1.98-.33-2.65-.94ZM326.25,64.08c0-4.98-1.89-9.5-5.03-12.97h8.27v-7.75h-17.12v-8.41h-12.91v8.41h-16.83v7.75h7.81c-3.14,3.47-5.05,7.99-5.05,12.97,0,10.93,9.16,19.77,20.44,19.77s20.43-8.84,20.43-19.77ZM297.78,63.4c0-7.1,3.6-12.86,8.04-12.86s8.05,5.76,8.05,12.86-3.6,12.87-8.05,12.87-8.04-5.76-8.04-12.87ZM349.94,56.19v-21.24h-12.39v58.74h4.27c4.5,0,8.12-2.82,8.12-10.02v-19.5h11.4v-7.99h-11.4Z"/>
        <path class="cls-2" d="M425.1,34.95v78.49h3.8c4.5,0,8.14-2.82,8.14-10.03V34.95h-11.95ZM408.11,59.31h-11.5v8.03h11.5v46.1h3.79c4.5,0,8.15-2.82,8.15-10.03V34.95h-11.94v24.37ZM392.94,75.16c-2.14-5.05-3.21-11.1-3.21-18.06v-6.03h11.87v-7.71h-11.87v-8.41h-12.86v8.41h-11.93v7.71h11.93v5.84c0,7.22-1.12,13.4-3.4,18.52-2.26,5.13-5.55,8.47-9.91,10.09v8.51c2.12-.35,4.28-.99,6.35-1.96,2.14-.93,4.07-2.08,5.76-3.4,1.78-1.31,3.29-2.73,4.57-4.25,1.23-1.53,2.13-2.99,2.69-4.42.45,1.39,1.33,2.85,2.66,4.36,1.35,1.56,2.91,3.04,4.78,4.39,1.84,1.32,3.86,2.49,6.07,3.46,2.2.97,4.39,1.55,6.61,1.81v-8.51c-4.6-1.83-7.95-5.31-10.11-10.36Z"/>
        <path class="cls-2" d="M517.31,76.39v-8.02h-20.64c1.88-1.93,3.36-4.19,4.45-6.72,1.06-2.58,1.61-5.23,1.61-8.04s-.55-5.41-1.61-7.98c-1.08-2.58-2.59-4.85-4.56-6.78-2.01-1.95-4.39-3.5-7.16-4.7-2.74-1.17-5.81-1.75-9.17-1.75s-6.65.6-9.41,1.78c-2.79,1.23-5.15,2.81-7.11,4.73-1.96,1.95-3.46,4.19-4.55,6.75-1.08,2.55-1.61,5.21-1.61,7.95s.53,5.42,1.56,7.97c1.05,2.57,2.56,4.86,4.6,6.79h-20.77v8.02h16.27v8.43h-8.3v8.43h44.86v20.2h4.75c4.22-.2,7.62-3.07,7.62-10v-18.62h-7.06v-8.43h16.24ZM488.58,84.81h-16.9v-8.43h16.9v8.43ZM487.4,63.21c-1.97,2.64-4.38,3.96-7.27,3.96s-5.35-1.3-7.29-3.82c-1.96-2.56-2.89-5.79-2.89-9.75,0-1.78.25-3.47.74-5.13.5-1.61,1.2-3.06,2.11-4.31.92-1.22,2.01-2.18,3.26-2.94,1.27-.75,2.65-1.12,4.18-1.12,2.93,0,5.35,1.35,7.24,4.01,1.91,2.66,2.86,5.81,2.86,9.49s-.97,6.98-2.93,9.61Z"/>
        <path class="cls-2" d="M577.95,34.95v51.67c-2.67,2.78-8.02,3.52-10.49,3.52h-15.13v-4.36c3.84-1.22,7.22-3.53,10.1-6.95,2.87-3.43,4.3-7.82,4.3-13.14,0-2.98-.57-5.7-1.74-8.15-1.17-2.47-2.61-4.63-4.39-6.46h8.72v-7.71h-16.72v-8.41h-12.84v8.41h-16.37v7.71h8.1c-1.78,1.82-3.21,3.99-4.32,6.46-1.08,2.45-1.66,5.17-1.66,8.15,0,5.32,1.44,9.71,4.3,13.14,2.84,3.42,6.24,5.73,10.24,6.95v4.36h-18.12v8.18h42.13c6.59,0,11.52-2.09,13.91-4.42v19.54h4.27c4.48,0,8.13-2.82,8.13-10.03V34.95h-12.4ZM546.08,78.99c-2.16,0-4.04-1.25-5.68-3.74-1.68-2.49-2.49-5.69-2.49-9.57,0-4.18.86-7.58,2.56-10.15,1.74-2.57,3.6-3.87,5.68-3.87,2.22,0,4.16,1.32,5.77,3.92,1.6,2.63,2.42,5.98,2.42,10.1s-.87,7.17-2.62,9.62c-1.74,2.45-3.62,3.69-5.64,3.69Z"/>
        <path class="cls-2" d="M261.96,34.95v24.52h-5.96v-24.52h-11.95v47.46c-2.65,2.78-8.02,3.52-10.48,3.52h-14.95c-1.27,0-2.26-.27-2.94-.81-.67-.54-1.02-1.34-1.02-2.38v-34.99h23.33v-7.75h-35.72v43.46c0,2.91.93,5.41,2.76,7.49,1.83,2.09,4.13,3.16,6.89,3.16h18.37v-.02c6.52-.02,11.4-2.09,13.77-4.39v23.73h3.81c4.49,0,8.14-2.82,8.14-10.03v-35.94h5.96v45.97h3.79c4.5,0,8.14-2.82,8.14-10.03V34.95h-11.93Z"/>
      </g>
      <g>
        <path class="cls-2" d="M202.28,129.15h2.51v7.72l7.49-7.72h3.34l-8.24,8.29,8.9,9.25h-3.67l-7.82-8.59v8.59h-2.51v-17.54Z"/>
        <path class="cls-2" d="M222.67,133.58c3.9,0,6.51,2.81,6.51,6.71,0,3.67-2.66,6.71-6.51,6.71s-6.53-3.04-6.53-6.71c0-3.9,2.61-6.71,6.53-6.71ZM222.67,145.09c2.76,0,4-2.51,4-4.8,0-2.44-1.48-4.8-4-4.8s-4.02,2.36-4.02,4.8c0,2.29,1.23,4.8,4.02,4.8Z"/>
        <path class="cls-2" d="M231.59,133.88h2.21v1.99h.05c.63-1.33,1.99-2.29,3.34-2.29.7,0,1.06.08,1.56.18v2.11c-.43-.18-.9-.23-1.31-.23-2.11,0-3.49,2.01-3.49,5.23v5.83h-2.36v-12.82Z"/>
        <path class="cls-2" d="M250.23,146.17c-.9.33-1.93.83-4.05.83-4.55,0-6.63-2.76-6.63-6.94,0-3.8,2.39-6.48,6.01-6.48,4.27,0,5.65,3.12,5.65,7.24h-9.15c0,2.54,1.99,4.27,4.22,4.27,1.56,0,3.37-.8,3.95-1.28v2.36ZM248.7,139.06c0-1.96-1.16-3.57-3.19-3.57-2.31,0-3.27,1.91-3.44,3.57h6.63Z"/>
        <path class="cls-2" d="M254.05,134.78c1.18-.7,2.59-1.21,4.22-1.21,3.67,0,5.15,1.81,5.15,5.3v5.3c0,1.46.05,2.14.1,2.51h-2.21v-1.66h-.05c-.55.78-1.81,1.96-3.97,1.96-2.76,0-4.7-1.21-4.7-4,0-3.22,3.52-4.22,5.96-4.22.93,0,1.58,0,2.51.05,0-2.21-.8-3.34-3.17-3.34-1.33,0-2.76.5-3.72,1.31l-.13-2.01ZM261.06,140.59c-.5,0-1.01-.05-1.51-.05-1.28,0-4.45.2-4.45,2.46,0,1.36,1.31,2.09,2.39,2.09,2.34,0,3.57-1.46,3.57-3.37v-1.13Z"/>
        <path class="cls-2" d="M266.54,133.88h2.29v2.04h.05c.7-1.46,2.41-2.34,4.2-2.34,3.32,0,4.8,2.06,4.8,5.5v7.62h-2.36v-6.63c0-2.99-.65-4.45-2.71-4.57-2.69,0-3.89,2.16-3.89,5.28v5.93h-2.36v-12.82Z"/>
        <path class="cls-2" d="M295.42,131.79c-1.28-.5-1.99-.73-3.29-.73-1.41,0-3.07.5-3.07,2.34,0,3.37,7.54,2.59,7.54,8.37,0,3.74-2.89,5.23-6.41,5.23-1.23,0-2.44-.35-3.59-.73l.25-2.34c.85.35,2.36.85,3.64.85,1.43,0,3.44-.8,3.44-2.87,0-3.92-7.54-2.84-7.54-8.29,0-3.12,2.46-4.77,5.63-4.77,1.16,0,2.54.2,3.74.63l-.35,2.31Z"/>
        <path class="cls-2" d="M299.04,133.88h2.26v1.81h.05c.63-.96,2.09-2.11,4.35-2.11,3.72,0,5.53,3.04,5.53,6.48s-1.63,6.94-5.5,6.94c-2.26,0-3.54-.88-4.27-2.06h-.05v7.04h-2.36v-18.09ZM305.2,135.49c-2.56,0-3.79,2.44-3.79,4.83,0,2.14,1.11,4.78,3.77,4.78s3.59-2.84,3.54-4.85c.05-2.31-.95-4.75-3.52-4.75Z"/>
        <path class="cls-2" d="M319.45,133.58c3.9,0,6.51,2.81,6.51,6.71,0,3.67-2.66,6.71-6.51,6.71s-6.53-3.04-6.53-6.71c0-3.9,2.61-6.71,6.53-6.71ZM319.45,145.09c2.76,0,4-2.51,4-4.8,0-2.44-1.48-4.8-4-4.8s-4.02,2.36-4.02,4.8c0,2.29,1.23,4.8,4.02,4.8Z"/>
        <path class="cls-2" d="M328.37,133.88h2.21v1.99h.05c.63-1.33,1.99-2.29,3.34-2.29.7,0,1.05.08,1.56.18v2.11c-.43-.18-.9-.23-1.31-.23-2.11,0-3.49,2.01-3.49,5.23v5.83h-2.36v-12.82Z"/>
        <path class="cls-2" d="M345.02,135.79h-3.39v7.01c0,1.48.9,2.29,1.99,2.29.73,0,1.26-.23,1.61-.45v2.01c-.53.15-1.26.35-2.01.35-2.44,0-3.95-1.16-3.95-3.72v-7.49h-2.89v-1.91h2.89v-2.96l2.36-.75v3.72h3.39v1.91Z"/>
        <path class="cls-2" d="M366.08,137.22c-.23,2.84-1,4.47-2.01,6.01l3.07,3.47h-3.14l-1.43-1.71c-1.26,1.43-2.79,2.01-5.03,2.01-3.47,0-5.65-1.96-5.65-4.9,0-2.66,1.56-4.17,3.92-5.13-.93-1.13-1.81-2.31-1.81-4,0-2.81,2.06-4.12,4.57-4.12,2.29,0,4.35,1.21,4.35,3.97,0,2.24-1.99,3.74-3.84,4.57l3.57,4.07c.68-1.08.96-2.24,1.08-4.25h2.36ZM357.99,145.09c1.63,0,2.69-1.06,3.24-1.68l-4.22-4.95c-1.33.91-2.46,1.73-2.46,3.47,0,1.94,1.63,3.17,3.44,3.17ZM357.91,135.99c1.06-.5,2.64-1.58,2.64-3.07,0-1.61-.88-2.16-2.09-2.16s-2.11.75-2.11,2.26c0,1.18.8,2.14,1.56,2.96Z"/>
        <path class="cls-2" d="M380.53,128.85c5.33,0,8.44,3.87,8.44,9.07s-3.09,9.07-8.44,9.07-8.44-3.75-8.44-9.07,3.12-9.07,8.44-9.07ZM380.53,144.79c4.05,0,5.78-3.37,5.78-6.86s-1.91-6.89-5.78-6.86c-3.87-.03-5.78,3.29-5.78,6.86s1.73,6.86,5.78,6.86Z"/>
        <path class="cls-2" d="M391.87,127.85h2.36v18.85h-2.36v-18.85Z"/>
        <path class="cls-2" d="M396.78,150.16c.3.1.7.2,1.11.2,2.11,0,2.81-2.92,2.81-3.17,0-.28-.3-.93-.45-1.36l-4.35-11.96h2.59l3.44,10.61h.05l3.52-10.61h2.39l-4.72,13.09c-.88,2.46-1.81,5.3-4.93,5.3-.75,0-1.18-.1-1.61-.18l.15-1.94Z"/>
        <path class="cls-2" d="M409.54,133.88h2.21v1.86h.05c.91-1.48,2.19-2.16,4.07-2.16,1.48,0,2.97.75,3.64,2.49.88-1.83,2.81-2.49,3.97-2.49,3.27,0,4.45,2.11,4.45,4.9v8.22h-2.36v-7.64c0-1.58-.38-3.57-2.29-3.57-2.41,0-3.37,2.36-3.37,4.75v6.46h-2.36v-7.64c0-1.58-.38-3.57-2.29-3.57-2.41,0-3.37,2.36-3.37,4.75v6.46h-2.36v-12.82Z"/>
        <path class="cls-2" d="M431.1,133.88h2.26v1.81h.05c.63-.96,2.09-2.11,4.35-2.11,3.72,0,5.53,3.04,5.53,6.48s-1.63,6.94-5.5,6.94c-2.26,0-3.54-.88-4.27-2.06h-.05v7.04h-2.36v-18.09ZM437.26,135.49c-2.56,0-3.79,2.44-3.79,4.83,0,2.14,1.11,4.78,3.77,4.78s3.59-2.84,3.54-4.85c.05-2.31-.95-4.75-3.52-4.75Z"/>
        <path class="cls-2" d="M448.39,131.02h-2.66v-2.66h2.66v2.66ZM445.88,133.88h2.36v12.82h-2.36v-12.82Z"/>
        <path class="cls-2" d="M459.85,136.04c-.91-.38-1.81-.55-2.56-.55-2.64,0-4.12,2.36-4.12,4.8,0,2.29,1.23,4.8,4.27,4.8.8,0,1.81-.25,2.54-.73l.18,2.11c-.98.45-2.11.53-2.97.53-3.87,0-6.53-3.04-6.53-6.71,0-3.9,2.61-6.71,6.53-6.71.96,0,2.19.23,2.87.5l-.2,1.96Z"/>
        <path class="cls-2" d="M480.52,132.05c-1.11-.65-2.34-.98-3.62-.98-4.05,0-6.74,2.92-6.74,6.86s2.96,6.86,6.61,6.86c1.26,0,2.94-.33,3.82-.85l.15,2.44c-1.33.55-2.97.63-4,.63-5.55,0-9.25-3.57-9.25-9.15s3.92-9,9.27-9c1.36,0,2.69.2,3.95.75l-.2,2.44Z"/>
        <path class="cls-2" d="M488.35,133.58c3.9,0,6.51,2.81,6.51,6.71,0,3.67-2.66,6.71-6.51,6.71s-6.53-3.04-6.53-6.71c0-3.9,2.61-6.71,6.53-6.71ZM488.35,145.09c2.76,0,4-2.51,4-4.8,0-2.44-1.48-4.8-4-4.8s-4.02,2.36-4.02,4.8c0,2.29,1.23,4.8,4.02,4.8Z"/>
        <path class="cls-2" d="M497.26,133.88h2.21v1.86h.05c.91-1.48,2.19-2.16,4.07-2.16,1.48,0,2.97.75,3.64,2.49.88-1.83,2.81-2.49,3.97-2.49,3.27,0,4.45,2.11,4.45,4.9v8.22h-2.36v-7.64c0-1.58-.38-3.57-2.29-3.57-2.41,0-3.37,2.36-3.37,4.75v6.46h-2.36v-7.64c0-1.58-.38-3.57-2.29-3.57-2.41,0-3.37,2.36-3.37,4.75v6.46h-2.36v-12.82Z"/>
        <path class="cls-2" d="M518.81,133.88h2.21v1.86h.05c.91-1.48,2.19-2.16,4.07-2.16,1.48,0,2.97.75,3.64,2.49.88-1.83,2.81-2.49,3.97-2.49,3.27,0,4.45,2.11,4.45,4.9v8.22h-2.36v-7.64c0-1.58-.38-3.57-2.29-3.57-2.41,0-3.37,2.36-3.37,4.75v6.46h-2.36v-7.64c0-1.58-.38-3.57-2.29-3.57-2.41,0-3.37,2.36-3.37,4.75v6.46h-2.36v-12.82Z"/>
        <path class="cls-2" d="M543,131.02h-2.66v-2.66h2.66v2.66ZM540.48,133.88h2.36v12.82h-2.36v-12.82Z"/>
        <path class="cls-2" d="M553.16,135.79h-3.39v7.01c0,1.48.9,2.29,1.99,2.29.73,0,1.26-.23,1.61-.45v2.01c-.53.15-1.26.35-2.01.35-2.44,0-3.95-1.16-3.95-3.72v-7.49h-2.89v-1.91h2.89v-2.96l2.36-.75v3.72h3.39v1.91Z"/>
        <path class="cls-2" d="M562.83,135.79h-3.39v7.01c0,1.48.9,2.29,1.99,2.29.73,0,1.26-.23,1.61-.45v2.01c-.53.15-1.26.35-2.01.35-2.44,0-3.95-1.16-3.95-3.72v-7.49h-2.89v-1.91h2.89v-2.96l2.36-.75v3.72h3.39v1.91Z"/>
        <path class="cls-2" d="M574.63,146.17c-.91.33-1.94.83-4.05.83-4.55,0-6.63-2.76-6.63-6.94,0-3.8,2.39-6.48,6.01-6.48,4.27,0,5.66,3.12,5.66,7.24h-9.15c0,2.54,1.99,4.27,4.22,4.27,1.56,0,3.37-.8,3.95-1.28v2.36ZM573.09,139.06c0-1.96-1.16-3.57-3.19-3.57-2.31,0-3.27,1.91-3.44,3.57h6.63Z"/>
        <path class="cls-2" d="M587.96,146.17c-.91.33-1.94.83-4.05.83-4.55,0-6.63-2.76-6.63-6.94,0-3.8,2.39-6.48,6.01-6.48,4.27,0,5.66,3.12,5.66,7.24h-9.15c0,2.54,1.99,4.27,4.22,4.27,1.56,0,3.37-.8,3.95-1.28v2.36ZM586.43,139.06c0-1.96-1.16-3.57-3.19-3.57-2.31,0-3.27,1.91-3.44,3.57h6.63Z"/>
      </g>
      <g>
        <path class="cls-8" d="M149.16,11.38c9.77,16.53-7.33,40.78-42.6,54.74-37.51,14.85-76.93,10.45-84.59,9.09,0,0,6.64,8.12,29.19,11.98,16.29,2.79,37.57-.95,54.35-7.62,39.66-15.81,58.32-49.06,43.64-68.19Z"/>
        <g>
          <path class="cls-4" d="M142.06,35.22C154.17,17.63,145.39,1.13,121.17.05c-4.13-.19-8.51.16-12.98,1.02-15.68,3-27.76,10.67-33.39,17.72-5.84,7.32-5.5,14.38-2.66,17.85,4.93,6.03,17.06,4.28,21.34-3.07-5.48-3.36,5.31-18.89,25.18-19.3,14.33-.3,20.23,8.61,18.54,17.04-1.78,8.89-9.82,17.25-15.07,21.89,0,0,12.42-7.08,19.93-17.98Z"/>
          <path class="cls-6" d="M115.16,26.55c-8.64-2.8-18.3,1.43-21.69,7.02,6.54,3.9-1.54,17.61-19.79,17.84-14.12.18-22.41-8.37-18.54-19.42,4.69-13.38,27.08-26.54,46.57-31.32h0c-25.41,4.21-43.52,15.3-53.98,27.77-14.49,17.28-9.5,34.21,12.47,38.41,11.42,2.18,25.13,1.01,38.7-4,30.82-11.4,30.89-31.54,16.26-36.29Z"/>
        </g>
      </g>
      <g>
        <path class="cls-5" d="M118.37,130.61c.78,0,1.57.04,2.33.12,1.67.16,3.29.52,4.83,1.02,8.21,2.67,14.39,9.81,15.71,18.55,1.55.5,3.16.86,4.83,1.02-1.04-11.87-9.54-21.59-20.77-24.48-1.5-.39-3.04-.64-4.63-.78-.76-.06-1.54-.1-2.31-.1-.85,0-1.69.05-2.52.13.07.74.1,1.48.1,2.25,0,.81-.04,1.62-.12,2.42.84-.09,1.67-.14,2.54-.14"/>
        <path class="cls-7" d="M148.42,100.43c-14.62,0-26.62,11.29-27.75,25.64,1.6.13,3.13.38,4.63.77.74-12.14,10.79-21.76,23.11-21.76s23.19,10.37,23.19,23.18-10.38,23.18-23.19,23.18c-.79,0-1.57-.04-2.34-.12-1.67-.16-3.28-.52-4.83-1.03-8.21-2.68-14.39-9.81-15.71-18.54-1.55-.5-3.16-.86-4.83-1.02,1.04,11.87,9.53,21.6,20.77,24.49,1.5.37,3.04.64,4.63.77.77.06,1.54.1,2.32.1,15.38,0,27.84-12.46,27.84-27.83s-12.46-27.84-27.84-27.84"/>
        <path class="cls-1" d="M55.59,126.16c-1.08-14.4-13.08-25.73-27.76-25.73S0,112.88,0,128.26s12.47,27.83,27.83,27.83c.84,0,1.66-.04,2.46-.11-.04-.7-.08-1.4-.08-2.11,0-.87.04-1.72.11-2.58-.81.1-1.65.15-2.5.15-12.79,0-23.18-10.38-23.18-23.18s10.39-23.19,23.18-23.19,22.44,9.68,23.13,21.88c.02.43.06.86.06,1.31,0,1.24-.13,2.45-.32,3.63-1.36,8.61-7.45,15.64-15.53,18.34-.19,1.19-.32,2.4-.32,3.64,0,.45.04.88.07,1.3,11.12-2.92,19.54-12.57,20.61-24.35.08-.84.13-1.7.13-2.56,0-.72-.03-1.41-.09-2.11"/>
        <path class="cls-3" d="M58.05,130.69c.79,0,1.57.04,2.35.12,1.66.17,3.28.53,4.83,1.03,8.22,2.67,14.39,9.8,15.72,18.53,1.55.5,3.16.86,4.83,1.02-1.06-11.86-9.53-21.58-20.78-24.47-1.5-.39-3.05-.64-4.63-.77-.76-.06-1.54-.1-2.32-.1-.83,0-1.64.04-2.46.11.06.7.09,1.39.09,2.11,0,.86-.05,1.72-.13,2.56.83-.08,1.66-.13,2.5-.13"/>
        <path class="cls-3" d="M81.16,155.29c-.73,12.14-10.78,21.76-23.11,21.76s-22.44-9.69-23.11-21.89c-.03-.43-.07-.86-.07-1.3,0-1.23.13-2.45.32-3.64,1.36-8.62,7.44-15.64,15.53-18.34.19-1.19.32-2.39.32-3.63,0-.45-.04-.88-.06-1.31-11.13,2.93-19.54,12.57-20.63,24.33-.07.86-.11,1.72-.11,2.58,0,.72.04,1.41.08,2.11,1.08,14.38,13.09,25.74,27.76,25.74s26.63-11.31,27.74-25.66c-1.58-.13-3.13-.39-4.63-.77"/>
        <path class="cls-2" d="M88.11,151.51c-.79,0-1.57-.04-2.34-.12-1.67-.17-3.28-.52-4.83-1.02-8.21-2.67-14.39-9.8-15.72-18.53-1.54-.5-3.16-.86-4.83-1.03,1.04,11.86,9.53,21.6,20.77,24.48,1.5.38,3.05.64,4.63.77.77.07,1.54.1,2.32.1.85,0,1.69-.04,2.51-.11-.06-.74-.1-1.49-.1-2.25,0-.83.04-1.63.11-2.43-.83.09-1.67.14-2.52.14"/>
        <path class="cls-2" d="M115.85,126.08c-1.15-14.32-13.12-25.58-27.74-25.58s-26.62,11.29-27.74,25.65c1.58.13,3.13.38,4.63.77.74-12.15,10.78-21.76,23.11-21.76s22.36,9.61,23.11,21.74c.04.47.08.95.08,1.45,0,1.19-.12,2.35-.29,3.49-1.31,8.67-7.42,15.76-15.53,18.48-.18,1.14-.29,2.29-.29,3.5,0,.48.04.96.07,1.44,11.17-2.95,19.58-12.66,20.59-24.49.08-.8.12-1.61.12-2.42,0-.76-.03-1.51-.1-2.25"/>
        <path class="cls-5" d="M141.47,155.22c-.74,12.13-10.78,21.76-23.1,21.76s-22.37-9.62-23.12-21.74c-.03-.48-.07-.96-.07-1.44,0-1.2.11-2.35.29-3.5,1.31-8.68,7.41-15.77,15.53-18.48.17-1.14.29-2.3.29-3.49,0-.49-.04-.97-.08-1.45-11.16,2.95-19.56,12.66-20.59,24.48-.07.8-.11,1.61-.11,2.44,0,.75.04,1.51.1,2.25,1.14,14.31,13.12,25.58,27.74,25.58s26.61-11.3,27.73-25.64c-1.59-.13-3.13-.4-4.63-.77"/>
      </g>
    </g>
  </g>
</svg>