<svg width="24" height="24" viewBox="0 0 24 24" fill="none" xmlns="http://www.w3.org/2000/svg">
<path d="M17.7824 9.43025C17.7824 12.6317 11.9967 20.3588 11.9967 20.3588C11.9967 20.3588 6.21094 12.6317 6.21094 9.43025C6.21094 7.89578 6.8205 6.42416 7.90553 5.33913C8.99057 4.2541 10.4622 3.64453 11.9967 3.64453C13.5311 3.64453 15.0027 4.2541 16.0878 5.33913C17.1728 6.42416 17.7824 7.89578 17.7824 9.43025V9.43025Z" stroke="#007EED" stroke-linecap="round" stroke-linejoin="round"/>
<path d="M11.9989 11.3571C13.064 11.3571 13.9275 10.4937 13.9275 9.42857C13.9275 8.36345 13.064 7.5 11.9989 7.5C10.9338 7.5 10.0703 8.36345 10.0703 9.42857C10.0703 10.4937 10.9338 11.3571 11.9989 11.3571Z" stroke="#007EED" stroke-linecap="round" stroke-linejoin="round"/>
</svg>
