<svg width="24" height="24" viewBox="0 0 24 24" fill="none" xmlns="http://www.w3.org/2000/svg">
<g id="Frame 2614878">
<path id="Vector" d="M13.887 18.4517C14.5488 18.8793 15.3374 19.0657 16.1203 18.9794C16.9031 18.8932 17.6325 18.5396 18.1857 17.9781L18.6693 17.5045C18.8813 17.2873 19 16.9956 19 16.6919C19 16.3881 18.8813 16.0965 18.6693 15.8793L16.6166 13.845C16.4016 13.6333 16.1121 13.5147 15.8106 13.5147C15.5091 13.5147 15.2197 13.6333 15.0046 13.845V13.845C14.7878 14.0573 14.4965 14.1762 14.1932 14.1762C13.89 14.1762 13.5987 14.0573 13.3819 13.845L10.1578 10.616C10.0503 10.5099 9.96487 10.3834 9.90658 10.2438C9.84828 10.1043 9.81826 9.95462 9.81826 9.80338C9.81826 9.65215 9.84828 9.50243 9.90658 9.36292C9.96487 9.22342 10.0503 9.09691 10.1578 8.99076V8.99076C10.3692 8.77538 10.4876 8.48548 10.4876 8.18351C10.4876 7.88153 10.3692 7.59164 10.1578 7.37626L8.11595 5.33124C7.89909 5.11889 7.60785 5 7.30457 5C7.00128 5 6.71005 5.11889 6.49319 5.33124L6.02033 5.81558C5.45972 6.36962 5.10668 7.10008 5.02056 7.88415C4.93444 8.66821 5.12051 9.45807 5.54747 10.1209C7.7721 13.4045 10.6027 16.2321 13.887 18.4517V18.4517Z" stroke="#007EED" stroke-linecap="round" stroke-linejoin="round"/>
</g>
</svg>
