<svg width="24" height="24" viewBox="0 0 24 24" fill="none" xmlns="http://www.w3.org/2000/svg">
<g clip-path="url(#clip0_9118_6260)">
<path d="M11.9978 13.1401C13.5757 13.1401 14.8549 11.8609 14.8549 10.2829C14.8549 8.70497 13.5757 7.42578 11.9978 7.42578C10.4198 7.42578 9.14062 8.70497 9.14062 10.2829C9.14062 11.8609 10.4198 13.1401 11.9978 13.1401Z" stroke="#007EED" stroke-linecap="round" stroke-linejoin="round"/>
<path d="M7.11719 17.5968C7.62718 16.7596 8.34394 16.0678 9.19857 15.5877C10.0532 15.1076 11.017 14.8555 11.9972 14.8555C12.9774 14.8555 13.9412 15.1076 14.7958 15.5877C15.6504 16.0678 16.3672 16.7596 16.8772 17.5968" stroke="#007EED" stroke-linecap="round" stroke-linejoin="round"/>
<path d="M11.9989 19.4275C16.1016 19.4275 19.4275 16.1016 19.4275 11.9989C19.4275 7.8962 16.1016 4.57031 11.9989 4.57031C7.8962 4.57031 4.57031 7.8962 4.57031 11.9989C4.57031 16.1016 7.8962 19.4275 11.9989 19.4275Z" stroke="#007EED" stroke-linecap="round" stroke-linejoin="round"/>
</g>
<defs>
<clipPath id="clip0_9118_6260">
<rect width="16" height="16" fill="white" transform="translate(4 4)"/>
</clipPath>
</defs>
</svg>
